<svg xmlns="http://www.w3.org/2000/svg" width="340" height="171" fill="none" viewBox="0 0 340 171"><path fill="#494999" d="M26.445 134.527v4.651h7.838v3.091h-7.778v7.502h-3.68v-18.605h12.28v3.316l-8.66.045ZM45.353 134.801c3.829 0 6.85 2.401 6.85 7.742 0 4.712-2.602 7.577-6.85 7.577-4.248 0-6.866-2.865-6.866-7.577 0-5.341 3.036-7.742 6.866-7.742Zm0 12.093c2.363 0 3.14-1.14 3.14-3.466v-1.935c0-2.311-.837-3.466-3.14-3.466-2.304 0-3.142 1.14-3.142 3.466v1.935c0 2.356.778 3.526 3.142 3.526v-.06ZM63.154 134.801c3.83 0 6.85 2.401 6.85 7.742 0 4.712-2.602 7.577-6.85 7.577-4.248 0-6.866-2.865-6.866-7.577 0-5.341 3.022-7.742 6.866-7.742Zm0 12.093c2.348 0 3.126-1.14 3.126-3.466v-1.935c0-2.311-.838-3.466-3.126-3.466-2.289 0-3.141 1.14-3.141 3.466v1.935c0 2.356.778 3.526 3.14 3.526v-.06ZM87.427 129.036v20.781h-2.662l-.883-2.1h-.09c-.493 1.65-1.989 2.4-4.158 2.4-3.305 0-5.549-2.4-5.549-7.592 0-5.461 2.752-7.712 6.238-7.712a7.951 7.951 0 0 1 3.305.6h.09v-6.377h3.71Zm-3.71 17.135v-8.027a23.927 23.927 0 0 0-2.856-.165c-2.393 0-2.992.78-2.992 3.556v2.176c0 2.475.659 3.211 2.797 3.211a5.962 5.962 0 0 0 3.052-.751ZM99.546 134.798a11.714 11.714 0 0 1 3.35.45v3.001l-.134.15a16.02 16.02 0 0 0-3.171-.33c-2.768 0-3.725.885-3.725 3.661v1.381c0 2.865.778 3.691 3.65 3.691a16.476 16.476 0 0 0 3.65-.495l.149.105v3.001c-1.39.451-2.847.664-4.308.63-4.936 0-6.88-2.716-6.88-7.653 0-5.251 2.647-7.592 7.419-7.592ZM113.564 134.801c3.829 0 6.865 2.401 6.865 7.742 0 4.712-2.617 7.577-6.865 7.577s-6.851-2.865-6.851-7.577c.03-5.341 3.051-7.742 6.851-7.742Zm0 12.093c2.363 0 3.141-1.14 3.141-3.466v-1.935c0-2.311-.838-3.466-3.141-3.466-2.304 0-3.142 1.14-3.142 3.466v1.935c.03 2.356.808 3.526 3.142 3.526v-.06ZM137.493 135.114v14.705h-2.752l-.853-2.146h-.089a3.835 3.835 0 0 1-4.099 2.446c-2.991 0-4.786-1.651-4.786-5.402v-9.603h3.724v9.843c0 1.351.643 1.741 2.274 1.741a5.062 5.062 0 0 0 2.872-.871v-10.713h3.709ZM151.51 135.085v3.391l-.165.15h-.882a8.154 8.154 0 0 0-3.994.825v10.428h-3.724v-14.704h2.483l1.077 2.161h.164a3.81 3.81 0 0 1 1.518-1.82 3.79 3.79 0 0 1 2.296-.566c.414-.032.83.014 1.227.135ZM164.987 146.728v3.001a15.29 15.29 0 0 1-3.097.36c-3.799 0-5.13-2.221-5.13-5.567v-6.302h-2.034v-3.136h2.034v-2.821l2.363-.975h1.332v3.796h4.352v3.136h-4.352v6.632c0 1.336.224 1.831 2.004 1.831.805.008 1.609-.038 2.408-.135l.12.18ZM183.866 134.801c3.845 0 6.866 2.401 6.866 7.742 0 4.712-2.618 7.577-6.866 7.577-4.248 0-6.85-2.865-6.85-7.577.044-5.341 3.066-7.742 6.85-7.742Zm0 12.093c2.364 0 3.142-1.14 3.142-3.466v-1.935c0-2.311-.838-3.466-3.142-3.466-2.303 0-3.126 1.14-3.126 3.466v1.935c.045 2.356.823 3.526 3.126 3.526v-.06ZM208.038 140.035v9.783h-3.725V139.81c0-.991-.329-1.576-2.318-1.576a5.974 5.974 0 0 0-2.812.66v10.924h-3.725v-14.705h2.663l.987 2.161h.134a3.987 3.987 0 0 1 1.625-1.915 3.964 3.964 0 0 1 2.444-.561c2.872 0 4.727 1.516 4.727 5.237ZM233.81 141.521v8.297h-2.617l-.943-2.071h-.015c-.493 1.621-1.885 2.371-4.323 2.371a4.24 4.24 0 0 1-4.455-2.671 4.269 4.269 0 0 1-.286-1.83c0-2.731 1.495-4.592 5.13-4.592a17.543 17.543 0 0 1 3.889.421h.045v-1.036c0-1.86-1.167-2.401-4.053-2.401-1.398.015-2.79.166-4.159.451l-.134-.135v-3.001a20.237 20.237 0 0 1 4.382-.465c5.625-.06 7.539 2.25 7.539 6.662Zm-3.575 4.861v-2.896h-4.024c-1.017 0-1.495.48-1.495 1.336v.84c0 1.065.448 1.5 2.004 1.5h.359a6.272 6.272 0 0 0 3.156-.78ZM251.488 140.036v9.783h-3.724v-10.008c0-.991-.329-1.576-2.334-1.576a5.88 5.88 0 0 0-2.797.66v10.924h-3.724v-14.705h2.662l.972 2.161h.15a3.994 3.994 0 0 1 1.649-1.935 3.968 3.968 0 0 1 2.479-.541c2.857 0 4.667 1.516 4.667 5.237ZM281.629 149.62l-.135.195h-3.859l-1.496-4.321h-7.165l-1.495 4.321h-3.83l-.134-.195 6.656-18.411h4.727l6.731 18.411Zm-6.402-6.992-.165-.48c-.807-2.251-1.585-4.802-2.363-7.502h-.195c-.747 2.61-1.495 5.176-2.333 7.502l-.165.48h5.221ZM298.936 142.211c0 5.371-2.333 7.907-5.774 7.907-2.528 0-3.395-.885-4.053-2.116h-.105c.169 1.022.259 2.056.269 3.091V156h-3.694v-21.006h2.677l.942 2.175h.135a4.12 4.12 0 0 1 4.158-2.476c2.753.106 5.445 2.116 5.445 7.518Zm-3.769-1.006c0-2.7-.808-3.226-2.992-3.226a7.355 7.355 0 0 0-2.991.631v7.697c.885.444 1.867.66 2.856.63 2.244 0 2.992-.945 2.992-3.646v-2.086h.135ZM316.992 142.211c0 5.371-2.318 7.907-5.774 7.907-2.528 0-3.38-.885-4.053-2.116h-.105c.175 1.022.27 2.055.284 3.091V156h-3.724v-21.006h2.662l.943 2.175h.149a4.12 4.12 0 0 1 4.158-2.476c2.753.106 5.46 2.116 5.46 7.518Zm-3.769-1.006c0-2.7-.808-3.226-2.992-3.226a7.363 7.363 0 0 0-2.992.631v7.697c.886.444 1.868.66 2.857.63 2.259 0 2.992-.945 2.992-3.646v-2.086h.135ZM92.008 94.436v18.005H20V23.014h72.008v25.298H62.271v6.842h29.737v32.5a79.1 79.1 0 0 1-8.212-.93 76.828 76.828 0 0 1-19.984-6.002l-3.081 6.121a82.78 82.78 0 0 0 21.704 6.617c3.17.5 6.367.825 9.573.976Zm49.033-39.342v-6.857h29.916V23.014H98.829V87.79a65.879 65.879 0 0 0 28.196-7.082l3.081 6.106a73.498 73.498 0 0 1-31.277 7.788v17.84h72.083V55.154l-29.871-.06ZM215.457 53.923v10.399h-31.023V23.014h30.649v10.398h-17.142v5.807h15.421v8.478h-15.421v6.226h17.516ZM253.407 46.889v17.45h-9.558l-2.588-4.411h-.239c-1.302 3.466-3.889 5.086-9.379 5.086-7.03 0-10.231-4.02-10.231-10.158 0-6.137 2.991-10.323 11.457-10.323a23.486 23.486 0 0 1 7.898 1.11h.18v-1.74c0-2.52-1.406-3.391-8.317-3.391a59.92 59.92 0 0 0-9.259.795l-.299-.3v-9.002a62.28 62.28 0 0 1 10.979-.99c14.734-.016 19.356 5.67 19.356 15.874Zm-12.46 8.793V51.18h-5.176c-1.495 0-2.094.75-2.094 1.92v1.501c0 1.426.613 2.1 2.588 2.1h.613a7.462 7.462 0 0 0 4.069-1.02ZM284.174 53.7v10.502a46.84 46.84 0 0 1-8.152.81c-10.471 0-13.627-4.71-13.627-13.188v-9.528h-4.069V31.658h4.069v-6.002L270.786 23h4.323v8.658h8.87v10.638h-8.87v8.477c0 2.041.613 2.851 3.575 2.851 1.84 0 4.069 0 5.235-.195l.255.27ZM204.164 70.551c3.694-.006 7.384.26 11.039.796v9.783l-.239.24c-2.348-.18-6.477-.436-9.992-.436-6.596 0-7.763.81-7.763 2.656v.435c0 1.426.434 1.996 4.562 2.611l4.861.796c7.225 1.05 10.98 4.5 10.98 11.388 0 9.273-4.248 14.164-20.942 14.164a79.39 79.39 0 0 1-12.654-.87v-10.083l.254-.18c3.97.49 7.966.741 11.967.75 6.476 0 7.643-.81 7.643-3v-.496c0-1.62-.374-2.236-5.744-3l-5.056-.811c-5.983-.87-9.618-4.141-9.618-11.194.045-8.537 4.787-13.549 20.702-13.549ZM255.199 79.761v32.68h-9.812l-2.334-5.011h-.314c-1.286 3.646-4.487 5.686-9.438 5.686-6.597 0-10.606-3.901-10.606-12.003V79.761h12.774v19.296c0 1.921.853 2.536 3.082 2.536a7.925 7.925 0 0 0 3.949-.991v-20.84h12.699ZM284.173 79.762v12.004l-.374.375a20.238 20.238 0 0 0-2.094-.075 35.436 35.436 0 0 0-7.719.75v19.626h-12.699v-32.68h9.184l2.588 5.072h.254c1.167-3.767 4.129-5.432 8.197-5.432a7.937 7.937 0 0 1 2.663.36ZM300.942 99.06v1.38c0 2.596 1.242 3.586 7.345 3.586a63.648 63.648 0 0 0 10.365-.735l.24.24v8.357a53.082 53.082 0 0 1-11.967 1.231c-14.24 0-18.428-5.627-18.428-16.82 0-11.884 5.669-17.21 16.948-17.21 9.633 0 14.494 4.396 14.494 13.308v6.677l-18.997-.015Zm0-7.293v.675h7.479v-2.22c0-2.04-.613-2.851-3.261-2.851h-.433c-3.097 0-3.785 1.365-3.785 4.396ZM310.517 43.644h-1.586l-.792-.106a10.181 10.181 0 0 1-6.776-4.216 10.338 10.338 0 0 1-.288-11.568 10.287 10.287 0 0 1 4.608-3.907 10.25 10.25 0 0 1 6.001-.64 10.12 10.12 0 0 1 5.803 3.361 9.968 9.968 0 0 1 2.319 4.727c.075.42.134.825.194 1.245v1.77c0 .406-.09.81-.179 1.201a10.241 10.241 0 0 1-3.291 5.597 10.014 10.014 0 0 1-4.757 2.34l-1.256.196Zm-.778-19.041a8.688 8.688 0 0 0-4.84 1.454 8.726 8.726 0 0 0-3.22 3.905 8.755 8.755 0 0 0 1.848 9.522 8.683 8.683 0 0 0 9.476 1.935 8.716 8.716 0 0 0 3.921-3.196 8.755 8.755 0 0 0 1.491-4.843 8.745 8.745 0 0 0-2.519-6.197 8.685 8.685 0 0 0-6.157-2.58Z"/><path fill="#494999" d="m312.355 34.764 1.331 3.33h-1.496c-.075 0-.164-.12-.194-.194a151.23 151.23 0 0 1-1.092-2.761.283.283 0 0 0-.299-.21h-2.454v3.15h-1.63v-9.482h4.727a3.135 3.135 0 0 1 2.392 1.018 3.164 3.164 0 0 1 .809 2.478 3.113 3.113 0 0 1-.651 1.648c-.372.474-.873.83-1.443 1.023Zm-4.204-1.5h3.276a1.49 1.49 0 0 0 1.091-.472 1.508 1.508 0 0 0 .405-1.12 1.494 1.494 0 0 0-1.496-1.5h-3.171l-.105 3.091Z"/></svg>